<svg xmlns="http://www.w3.org/2000/svg" viewBox="0 0 24 24" width="48" height="48">
  <path fill="#000000" d="M20,13V11H18V13H20M18,17A1,1 0 0,1 17,18A1,1 0 0,1 16,17C16,16.45 16.45,16 17,16A1,1 0 0,1 18,17M11,17A1,1 0 0,1 10,18A1,1 0 0,1 9,17C9,16.45 9.45,16 10,16A1,1 0 0,1 11,17M6,13V11H4V13H6M14,13V11H8V13H14M17,11V9H7V11H17M17,7A5,5 0 0,0 12,2A5,5 0 0,0 7,7V9H17V7M8,17A3,3 0 0,0 11,20A3,3 0 0,0 14,17V15H8V17M19,9V7C19,5.79 18.61,4.66 17.95,3.72C17.38,2.71 16.63,1.83 15.75,1.15C14.66,0.41 13.37,0 12,0C10.63,0 9.34,0.41 8.25,1.15C7.37,1.83 6.62,2.71 6.05,3.72C5.39,4.66 5,5.79 5,7V9H2V11H4V13H2V15H4V20A2,2 0 0,0 6,22H18A2,2 0 0,0 20,20V15H22V13H20V11H22V9H19Z" />
</svg>
