<svg width="240" height="240" viewBox="0 0 240 240" xmlns="http://www.w3.org/2000/svg">
  <rect width="240" height="240" fill="#1a1a1a" rx="40"/>
  <g fill="none" stroke="#4fd15a" stroke-width="12" stroke-linecap="round" stroke-linejoin="round">
    <!-- Bug Body -->
    <path d="M120 80v80 M90 100h60 M90 130h60 M90 160h60"/>
    <rect x="70" y="70" width="100" height="110" rx="30" stroke="#ff8c00"/>
    <!-- Legs -->
    <path d="M70 90 L50 70 M170 90 L190 70 M70 125 L40 125 M170 125 L200 125 M70 160 L50 180 M170 160 L190 180"/>
    <!-- Antennae -->
    <path d="M100 70 L90 40 M140 70 L150 40"/>
  </g>
  <!-- Magnifying Glass -->
  <g transform="translate(130, 80) rotate(-15)">
    <circle cx="0" cy="0" r="30" stroke="#4fd15a" stroke-width="10" fill="#1a1a1a"/>
    <line x1="20" y1="20" x2="45" y2="45" stroke="#4fd15a" stroke-width="10"/>
  </g>
</svg>
